<?xml version="1.0" encoding="iso-8859-1"?>
<!-- Generator: Adobe Illustrator 19.0.0, SVG Export Plug-In . SVG Version: 6.00 Build 0)  -->
<svg xmlns="http://www.w3.org/2000/svg" xmlns:xlink="http://www.w3.org/1999/xlink" version="1.1" id="Capa_1" x="0px" y="0px" viewBox="0 0 512.003 512.003" style="enable-background:new 0 0 512.003 512.003;" xml:space="preserve" width="512px" height="512px">
<g>
	<g>
		<path d="M506.397,60.255c-3.354-1.212-7.134-0.222-9.455,2.526L181.208,438.248c-2.142,2.534-2.611,6.076-1.212,9.088    c1.408,3.004,4.42,4.932,7.74,4.932H503.47c4.719,0,8.533-3.814,8.533-8.533V68.268C512.003,64.684,509.759,61.484,506.397,60.255    z M494.936,435.202h-288.87l288.87-343.526V435.202z" fill="#ef233c"/>
	</g>
</g>
<g>
	<g>
		<path d="M324.27,59.735c-2.517,0-4.907,1.109-6.528,3.046L2.008,438.248c-2.142,2.534-2.611,6.076-1.212,9.088    c1.408,3.004,4.42,4.932,7.74,4.932h179.2v-17.067H26.866l301.38-358.4H503.47V59.735H324.27z" fill="#ef233c"/>
	</g>
</g>
<g>
	<g>
		
			<rect x="40.606" y="247.491" transform="matrix(0.6437 -0.7653 0.7653 0.6437 -94.0628 310.0201)" width="490.59" height="17.067" fill="#ef233c"/>
	</g>
</g>
<g>
	<g>
		
			<rect x="-19.144" y="247.466" transform="matrix(0.6437 -0.7653 0.7653 0.6437 -115.3333 264.2858)" width="490.59" height="17.067" fill="#ef233c"/>
	</g>
</g>
<g>
	<g>
		<rect x="443.736" y="213.335" width="17.067" height="17.067" fill="#ef233c"/>
	</g>
</g>
<g>
	<g>
		<rect x="452.27" y="341.335" width="17.067" height="17.067" fill="#ef233c"/>
	</g>
</g>
<g>
	<g>
		<rect x="426.67" y="264.535" width="17.067" height="17.067" fill="#ef233c"/>
	</g>
</g>
<g>
	<g>
		<rect x="298.67" y="375.468" width="17.067" height="17.067" fill="#ef233c"/>
	</g>
</g>
<g>
	<g>
		<rect x="384.003" y="401.068" width="17.067" height="17.067" fill="#ef233c"/>
	</g>
</g>
<g>
</g>
<g>
</g>
<g>
</g>
<g>
</g>
<g>
</g>
<g>
</g>
<g>
</g>
<g>
</g>
<g>
</g>
<g>
</g>
<g>
</g>
<g>
</g>
<g>
</g>
<g>
</g>
<g>
</g>
</svg>
