<?xml version="1.0" encoding="UTF-8"?>
<!-- Generator: Adobe Illustrator 19.0.0, SVG Export Plug-In . SVG Version: 6.00 Build 0)  -->
<svg version="1.1" id="Layer_1" xmlns="http://www.w3.org/2000/svg" xmlns:xlink="http://www.w3.org/1999/xlink" x="0px" y="0px" viewBox="-307.7 -706.4 966.6 1355.4" style="enable-background:new -307.7 -706.4 966.6 1355.4;" xml:space="preserve">
<style type="text/css">
	.st0{fill:none;stroke:#57DDB7;stroke-width:11;stroke-linecap:round;stroke-linejoin:round;stroke-miterlimit:10;}
	.st1{fill:none;stroke:#FF66A4;stroke-width:11;stroke-linecap:round;stroke-linejoin:round;stroke-miterlimit:10;}
	.st2{fill:none;stroke:#DD6258;stroke-width:11;stroke-linecap:round;stroke-linejoin:round;stroke-miterlimit:10;}
	.st3{fill:none;stroke:#9DC667;stroke-width:11;stroke-linecap:round;stroke-linejoin:round;stroke-miterlimit:10;}
	.st4{fill:none;stroke:#EDCB5D;stroke-width:11;stroke-linecap:round;stroke-linejoin:round;stroke-miterlimit:10;}
	.st5{fill:none;stroke:#66FBFF;stroke-width:11;stroke-linecap:round;stroke-linejoin:round;stroke-miterlimit:10;}
	.st6{fill:none;stroke:#9B3E71;stroke-width:11;stroke-linecap:round;stroke-linejoin:round;stroke-miterlimit:10;}
	.st7{fill:none;stroke:#161E6D;stroke-width:11;stroke-linecap:round;stroke-linejoin:round;stroke-miterlimit:10;}
</style>
<path id="XMLID_190_" class="st0" d="M-138.3,306c-5.3,8.9-10.7,17.8-16,26.7"/>
<g id="XMLID_187_">
	<polyline id="XMLID_189_" class="st1" points="-238.6,585.2 -219.7,586.8 -214.2,568.6 -195.3,570.2 -189.8,552  "/>
</g>
<g id="XMLID_184_">
	<polyline id="XMLID_186_" class="st2" points="58.8,215.8 53.3,233.9 69.8,243.2 64.3,261.3 80.8,270.6  "/>
</g>
<g id="XMLID_181_">
	<polyline id="XMLID_183_" class="st1" points="-78.2,361 -60.9,353.3 -64.7,334.7 -47.4,327 -51.2,308.5  "/>
</g>
<path id="XMLID_180_" class="st3" d="M105.5,560.2c-5.3,8.9-10.7,17.8-16,26.7"/>
<path id="XMLID_179_" class="st4" d="M-87.7,595.1c-10-2.7-20-5.5-30.1-8.2"/>
<path id="XMLID_178_" class="st3" d="M-123.3,149.9c-10-2.7-20-5.5-30.1-8.2"/>
<path id="XMLID_177_" class="st5" d="M-136.2,453.2c-5.3,8.9-10.7,17.8-16,26.7"/>
<path id="XMLID_176_" class="st5" d="M-7.7,232.9c-10-2.7-20-5.5-30.1-8.2"/>
<path id="XMLID_175_" class="st0" d="M-21.7,35.4c-0.7-10.4-1.4-20.7-2.1-31.1"/>
<g id="XMLID_172_">
	<polyline id="XMLID_174_" class="st6" points="196,538.5 194.3,557.3 212.3,563.1 210.6,581.9 228.7,587.7  "/>
</g>
<g id="XMLID_169_">
	<polyline id="XMLID_171_" class="st4" points="134.7,433.6 141.6,451.3 160.3,448.4 167.2,466.1 185.9,463.1  "/>
</g>
<path id="XMLID_168_" class="st7" d="M-25.3,453.5c-2.5-10.1-5-20.2-7.5-30.2"/>
<g id="XMLID_165_">
	<polyline id="XMLID_167_" class="st6" points="-222.6,267.9 -203.7,269.4 -198.2,251.3 -179.3,252.8 -173.8,234.7  "/>
</g>
<path id="XMLID_164_" class="st7" d="M-51.6,126.9c-5.2-9-10.5-17.9-15.7-26.9"/>
<path id="XMLID_163_" class="st5" d="M118.6,355.7c3.2,9.9,6.4,19.7,9.7,29.6"/>
<g id="XMLID_160_">
	<polyline id="XMLID_162_" class="st1" points="43.4,42.1 28.3,53.6 36.3,70.8 21.2,82.3 29.2,99.5  "/>
</g>
<g id="XMLID_158_">
	<path id="XMLID_159_" class="st7" d="M131.8,200.1c-5.1-3.7-0.9-9.4-6-13.1c-5.1-3.7-9.2,1.7-14.3-2c-5.1-3.7-0.9-9.4-6-13.1"/>
</g>
<g id="XMLID_156_">
	<path id="XMLID_157_" class="st0" d="M60,513.1c-6.2-1.1-5.1-7.9-11.3-9c-6.2-1.1-7.4,5.8-13.6,4.6s-5.1-7.9-11.3-9"/>
</g>
<g id="XMLID_154_">
	<path id="XMLID_155_" class="st5" d="M-244.1,70.8c2.3-5.9,8.8-3.4,11.1-9.3c2.3-5.9-4.1-8.4-1.8-14.3c2.3-5.9,8.8-3.4,11.1-9.3"/>
</g>
<g id="XMLID_152_">
	<path id="XMLID_153_" class="st2" d="M-193,429.1c-5.1-3.7-0.9-9.4-6-13.1c-5.1-3.7-9.2,1.7-14.3-2c-5.1-3.7-0.9-9.4-6-13.1"/>
</g>
<g id="XMLID_150_">
	<path id="XMLID_151_" class="st4" d="M33.6,363.3c1.6-6.1,8.4-4.3,10-10.4s-5-8-3.3-14c1.6-6.1,8.4-4.3,10-10.4"/>
</g>
<path id="XMLID_149_" class="st4" d="M-247.9,180.1c-10-2.7-20-5.5-30.1-8.2"/>
<g id="XMLID_147_">
	<path id="XMLID_148_" class="st6" d="M-137.9-9.9c-5.1-3.7-0.9-9.4-6-13.1s-9.2,1.7-14.3-2s-0.9-9.4-6-13.1"/>
</g>
<path id="XMLID_146_" class="st0" d="M282.9,110c-5.3,8.9-10.7,17.8-16,26.7"/>
<g id="XMLID_63_">
	<polyline id="XMLID_145_" class="st1" points="600.8,524.7 619.7,526.3 625.2,508.2 644.2,509.7 649.7,491.6  "/>
</g>
<g id="XMLID_60_">
	<polyline id="XMLID_62_" class="st2" points="480,19.8 474.5,37.9 491,47.2 485.5,65.3 502,74.6  "/>
</g>
<g id="XMLID_57_">
	<polyline id="XMLID_59_" class="st1" points="343,165 360.3,157.3 356.5,138.8 373.8,131.1 370,112.5  "/>
</g>
<path id="XMLID_56_" class="st3" d="M526.7,364.2c-5.3,8.9-10.7,17.8-16,26.7"/>
<path id="XMLID_55_" class="st4" d="M333.5,399.1c-10-2.7-20-5.5-30.1-8.2"/>
<path id="XMLID_54_" class="st3" d="M342.3,593.3c-10-2.7-20-5.5-30.1-8.2"/>
<path id="XMLID_53_" class="st5" d="M282.9,270.5c-5.3,8.9-10.7,17.8-16,26.7"/>
<path id="XMLID_52_" class="st5" d="M413.5,36.9c-10-2.7-20-5.5-30.1-8.2"/>
<path id="XMLID_51_" class="st0" d="M467.8,497.6c-0.7-10.4-1.4-20.7-2.1-31.1"/>
<g id="XMLID_48_">
	<polyline id="XMLID_50_" class="st6" points="617.2,342.5 615.5,361.4 633.6,367.1 631.8,386 649.9,391.7  "/>
</g>
<g id="XMLID_44_">
	<polyline id="XMLID_47_" class="st4" points="555.9,237.7 562.8,255.3 581.5,252.4 588.4,270.1 607.1,267.1  "/>
</g>
<path id="XMLID_43_" class="st7" d="M395.9,257.6c-2.5-10.1-5-20.2-7.5-30.2"/>
<g id="XMLID_40_">
	<polyline id="XMLID_42_" class="st6" points="142.2,86.6 161.1,88.1 166.6,70 185.5,71.5 191,53.4  "/>
</g>
<path id="XMLID_39_" class="st7" d="M414.1,570.2c-5.2-9-10.5-17.9-15.7-26.9"/>
<path id="XMLID_38_" class="st5" d="M494.1,201c3.2,9.9,6.4,19.7,9.7,29.6"/>
<g id="XMLID_34_">
	<polyline id="XMLID_37_" class="st1" points="513.3,544.8 498.2,556.2 506.3,573.4 491.2,584.9 499.2,602.1  "/>
</g>
<g id="XMLID_28_">
	<path id="XMLID_29_" class="st7" d="M597.4,643.5c-5.1-3.7-0.9-9.4-6-13.1c-5.1-3.7-9.2,1.7-14.3-2s-0.9-9.4-6-13.1"/>
</g>
<g id="XMLID_26_">
	<path id="XMLID_27_" class="st0" d="M481.2,317.1c-6.2-1.1-5.1-7.9-11.3-9s-7.4,5.8-13.6,4.6c-6.2-1.1-5.1-7.9-11.3-9"/>
</g>
<g id="XMLID_22_">
	<path id="XMLID_25_" class="st5" d="M285,508.2c2.3-5.9,8.8-3.4,11.1-9.3c2.3-5.9-4.1-8.4-1.8-14.3c2.3-5.9,8.8-3.4,11.1-9.3"/>
</g>
<g id="XMLID_20_">
	<path id="XMLID_21_" class="st2" d="M228.2,233.1c-5.1-3.7-0.9-9.4-6-13.1s-9.2,1.7-14.3-2c-5.1-3.7-0.9-9.4-6-13.1"/>
</g>
<g id="XMLID_18_">
	<path id="XMLID_19_" class="st4" d="M454.8,167.3c1.6-6.1,8.4-4.3,10-10.4c1.6-6.1-5-8-3.3-14c1.6-6.1,8.4-4.3,10-10.4"/>
</g>
<path id="XMLID_17_" class="st4" d="M173.3-15.8c-10-2.7-20-5.5-30.1-8.2"/>
<g id="XMLID_15_">
	<path id="XMLID_16_" class="st6" d="M361.4,360c-5.1-3.7-0.9-9.4-6-13.1s-9.2,1.7-14.3-2s-0.9-9.4-6-13.1"/>
</g>
<path id="XMLID_109_" class="st0" d="M-166-352.1c-5.3,8.9-10.7,17.8-16,26.7"/>
<g id="XMLID_107_">
	<polyline id="XMLID_108_" class="st1" points="-266.3,-72.9 -247.4,-71.3 -241.9,-89.5 -223,-87.9 -217.5,-106.1  "/>
</g>
<g id="XMLID_105_">
	<polyline id="XMLID_106_" class="st2" points="31.1,-442.3 25.6,-424.2 42.1,-414.9 36.6,-396.8 53.1,-387.5  "/>
</g>
<g id="XMLID_103_">
	<polyline id="XMLID_104_" class="st1" points="-105.9,-297.1 -88.6,-304.8 -92.4,-323.4 -75.1,-331.1 -78.9,-349.6  "/>
</g>
<path id="XMLID_102_" class="st3" d="M77.8-97.9c-5.3,8.9-10.7,17.8-16,26.7"/>
<path id="XMLID_101_" class="st4" d="M-87.7-84.6c-10-2.7-20-5.5-30.1-8.2"/>
<path id="XMLID_100_" class="st3" d="M-151-508.2c-10-2.7-20-5.5-30.1-8.2"/>
<path id="XMLID_99_" class="st5" d="M-163.9-204.9c-5.3,8.9-10.7,17.8-16,26.7"/>
<path id="XMLID_98_" class="st5" d="M-35.4-425.2c-10-2.7-20-5.5-30.1-8.2"/>
<path id="XMLID_97_" class="st0" d="M-25.6-603.8c-0.7-10.4-1.4-20.7-2.1-31.1"/>
<g id="XMLID_95_">
	<polyline id="XMLID_96_" class="st6" points="168.3,-119.6 166.6,-100.8 184.6,-95 182.9,-76.2 201,-70.4  "/>
</g>
<g id="XMLID_93_">
	<polyline id="XMLID_94_" class="st4" points="117.6,-240.7 124.5,-223 143.2,-225.9 150.1,-208.2 168.8,-211.2  "/>
</g>
<path id="XMLID_92_" class="st7" d="M-53-204.6c-2.5-10.1-5-20.2-7.5-30.2"/>
<g id="XMLID_90_">
	<polyline id="XMLID_91_" class="st6" points="-250.3,-390.2 -231.4,-388.7 -225.9,-406.8 -207,-405.3 -201.5,-423.4  "/>
</g>
<path id="XMLID_89_" class="st7" d="M-79.3-531.2c-5.2-9-10.5-17.9-15.7-26.9"/>
<path id="XMLID_88_" class="st5" d="M90.9-302.4c3.2,9.9,6.4,19.7,9.7,29.6"/>
<g id="XMLID_86_">
	<polyline id="XMLID_87_" class="st1" points="20,-556.7 4.9,-545.2 12.9,-528 -2.2,-516.5 5.8,-499.3  "/>
</g>
<g id="XMLID_84_">
	<path id="XMLID_85_" class="st7" d="M104.1-458c-5.1-3.7-0.9-9.4-6-13.1c-5.1-3.7-9.2,1.7-14.3-2c-5.1-3.7-0.9-9.4-6-13.1"/>
</g>
<g id="XMLID_82_">
	<path id="XMLID_83_" class="st0" d="M32.3-145c-6.2-1.1-5.1-7.9-11.3-9c-6.2-1.1-7.4,5.8-13.6,4.6s-5.1-7.9-11.3-9"/>
</g>
<g id="XMLID_80_">
	<path id="XMLID_81_" class="st5" d="M-208.3-593.2c2.3-5.9,8.8-3.4,11.1-9.3c2.3-5.9-4.1-8.4-1.8-14.3c2.3-5.9,8.8-3.4,11.1-9.3"/>
</g>
<g id="XMLID_78_">
	<path id="XMLID_79_" class="st2" d="M-220.7-229c-5.1-3.7-0.9-9.4-6-13.1c-5.1-3.7-9.2,1.7-14.3-2c-5.1-3.7-0.9-9.4-6-13.1"/>
</g>
<g id="XMLID_76_">
	<path id="XMLID_77_" class="st4" d="M5.9-294.8c1.6-6.1,8.4-4.3,10-10.4s-5-8-3.3-14c1.6-6.1,8.4-4.3,10-10.4"/>
</g>
<path id="XMLID_75_" class="st4" d="M-275.6-478c-10-2.7-20-5.5-30.1-8.2"/>
<g id="XMLID_73_">
	<path id="XMLID_74_" class="st6" d="M-94.6-672.7c-5.1-3.7-0.9-9.4-6-13.1c-5.1-3.7-9.2,1.7-14.3-2c-5.1-3.7-0.9-9.4-6-13.1"/>
</g>
<path id="XMLID_72_" class="st0" d="M255.2-548.1c-5.3,8.9-10.7,17.8-16,26.7"/>
<g id="XMLID_70_">
	<polyline id="XMLID_71_" class="st1" points="573.1,-133.4 592,-131.8 597.5,-149.9 616.5,-148.4 622,-166.5  "/>
</g>
<g id="XMLID_68_">
	<polyline id="XMLID_69_" class="st2" points="452.3,-638.3 446.8,-620.2 463.3,-610.9 457.8,-592.8 474.3,-583.5  "/>
</g>
<g id="XMLID_66_">
	<polyline id="XMLID_67_" class="st1" points="315.3,-493.1 332.6,-500.8 328.8,-519.3 346.1,-527 342.3,-545.6  "/>
</g>
<path id="XMLID_65_" class="st3" d="M499-293.9c-5.3,8.9-10.7,17.8-16,26.7"/>
<path id="XMLID_64_" class="st4" d="M305.8-259c-10-2.7-20-5.5-30.1-8.2"/>
<path id="XMLID_61_" class="st3" d="M314.6-64.8c-10-2.7-20-5.5-30.1-8.2"/>
<path id="XMLID_58_" class="st5" d="M255.2-387.6c-5.3,8.9-10.7,17.8-16,26.7"/>
<path id="XMLID_49_" class="st5" d="M393.6-622c-10-2.7-20-5.5-30.1-8.2"/>
<path id="XMLID_46_" class="st0" d="M440.1-160.5c-0.7-10.4-1.4-20.7-2.1-31.1"/>
<g id="XMLID_41_">
	<polyline id="XMLID_45_" class="st6" points="589.5,-315.6 587.8,-296.7 605.9,-291 604.1,-272.1 622.2,-266.4  "/>
</g>
<g id="XMLID_35_">
	<polyline id="XMLID_36_" class="st4" points="528.2,-420.4 535.1,-402.8 553.8,-405.7 560.7,-388 579.4,-391  "/>
</g>
<path id="XMLID_33_" class="st7" d="M368.2-400.5c-2.5-10.1-5-20.2-7.5-30.2"/>
<g id="XMLID_31_">
	<polyline id="XMLID_32_" class="st6" points="170.9,-586.2 189.8,-584.7 195.3,-602.8 214.2,-601.3 219.7,-619.4  "/>
</g>
<path id="XMLID_30_" class="st7" d="M386.4-87.9c-5.2-9-10.5-17.9-15.7-26.9"/>
<path id="XMLID_24_" class="st5" d="M512.1-498.4c3.2,9.9,6.4,19.7,9.7,29.6"/>
<g id="XMLID_14_">
	<polyline id="XMLID_23_" class="st1" points="485.6,-113.3 470.5,-101.9 478.6,-84.7 463.5,-73.2 471.5,-56  "/>
</g>
<g id="XMLID_12_">
	<path id="XMLID_13_" class="st7" d="M569.7-14.6c-5.1-3.7-0.9-9.4-6-13.1c-5.1-3.7-9.2,1.7-14.3-2s-0.9-9.4-6-13.1"/>
</g>
<g id="XMLID_10_">
	<path id="XMLID_11_" class="st0" d="M453.5-341c-6.2-1.1-5.1-7.9-11.3-9s-7.4,5.8-13.6,4.6c-6.2-1.1-5.1-7.9-11.3-9"/>
</g>
<g id="XMLID_8_">
	<path id="XMLID_9_" class="st5" d="M257.3-149.9c2.3-5.9,8.8-3.4,11.1-9.3c2.3-5.9-4.1-8.4-1.8-14.3c2.3-5.9,8.8-3.4,11.1-9.3"/>
</g>
<g id="XMLID_6_">
	<path id="XMLID_7_" class="st2" d="M200.5-425c-5.1-3.7-0.9-9.4-6-13.1s-9.2,1.7-14.3-2c-5.1-3.7-0.9-9.4-6-13.1"/>
</g>
<g id="XMLID_4_">
	<path id="XMLID_5_" class="st4" d="M427.1-490.8c1.6-6.1,8.4-4.3,10-10.4s-5-8-3.3-14c1.6-6.1,8.4-4.3,10-10.4"/>
</g>
<path id="XMLID_3_" class="st4" d="M145.6-673.9c-10-2.7-20-5.5-30.1-8.2"/>
<g id="XMLID_1_">
	<path id="XMLID_2_" class="st6" d="M333.7-298.1c-5.1-3.7-0.9-9.4-6-13.1s-9.2,1.7-14.3-2s-0.9-9.4-6-13.1"/>
</g>
<g id="XMLID_110_">
	<polyline id="XMLID_111_" class="st1" points="611.9,-576.8 596.8,-565.3 604.8,-548.1 589.7,-536.6 597.7,-519.4  "/>
</g>
<path id="XMLID_112_" class="st5" d="M640.3-38.7c-10-2.7-20-5.5-30.1-8.2"/>
<path id="XMLID_113_" class="st0" d="M544.5-606.5c-0.7-10.4-1.4-20.7-2.1-31.1"/>
<g id="XMLID_114_">
	<path id="XMLID_115_" class="st0" d="M599.6,120.2c-6.2-1.1-5.1-7.9-11.3-9s-7.4,5.8-13.6,4.6s-5.1-7.9-11.3-9"/>
</g>
<g id="XMLID_116_">
	<path id="XMLID_117_" class="st2" d="M635.3-644.5c-5.1-3.7-0.9-9.4-6-13.1s-9.2,1.7-14.3-2c-5.1-3.7-0.9-9.4-6-13.1"/>
</g>
<path id="XMLID_118_" class="st4" d="M627.1,26.5c-7.7,6.9-15.5,13.8-23.2,20.8"/>
<g id="XMLID_119_">
	<path id="XMLID_120_" class="st1" d="M622.2,200.1c-5.1-3.7-0.9-9.4-6-13.1c-5.1-3.7-9.2,1.7-14.3-2c-5.1-3.7-0.9-9.4-6-13.1"/>
</g>
<g id="XMLID_121_">
	<path id="XMLID_122_" class="st1" d="M308.3,18.4c-5.1-3.7-0.9-9.4-6-13.1s-9.2,1.7-14.3-2c-5.1-3.7-0.9-9.4-6-13.1"/>
</g>
</svg>